<?xml version="1.0" encoding="UTF-8"?>
<!-- Generator: visioncortex VTracer 0.6.12 -->
<svg version="1.1" xmlns="http://www.w3.org/2000/svg" width="640" height="640">
<path d="M0 0 C211.2 0 422.4 0 640 0 C640 211.2 640 422.4 640 640 C428.8 640 217.6 640 0 640 C0 428.8 0 217.6 0 0 Z " fill="#FEFDFE" transform="translate(0,0)"/>
<path d="M0 0 C2.741 -0.002 5.482 -0.009 8.223 -0.016 C14.872 -0.03 21.52 -0.023 28.168 -0.008 C35.923 0.009 43.678 0.006 51.433 0.002 C65.276 -0.004 79.119 0.01 92.962 0.035 C106.372 0.059 119.782 0.066 133.191 0.056 C147.822 0.044 162.452 0.042 177.082 0.057 C178.644 0.058 180.206 0.06 181.768 0.061 C182.152 0.062 182.152 0.062 184.097 0.064 C189.493 0.068 194.889 0.067 200.285 0.062 C206.867 0.057 213.449 0.063 220.031 0.083 C223.384 0.093 226.737 0.097 230.091 0.09 C233.736 0.084 237.381 0.097 241.026 0.114 C241.549 0.111 241.549 0.111 244.195 0.096 C260.253 0.233 275.241 5.893 286.832 17.123 C294.48 25.47 302.147 36.814 302.132 48.551 C302.132 48.95 302.132 48.95 302.136 50.965 C302.132 51.829 302.129 52.694 302.125 53.585 C302.125 54.502 302.125 55.42 302.125 56.365 C302.125 59.395 302.117 62.425 302.109 65.455 C302.107 67.557 302.106 69.658 302.105 71.76 C302.101 77.291 302.091 82.821 302.08 88.351 C302.07 93.995 302.065 99.639 302.06 105.283 C302.05 116.356 302.033 127.429 302.011 138.502 C301.073 137.962 300.135 137.422 299.169 136.866 C297.913 136.146 296.658 135.425 295.402 134.705 C294.787 134.351 294.171 133.996 293.537 133.631 C264.065 116.74 230.535 109.722 197.011 118.502 C176.027 124.207 158.149 135.129 142.011 149.502 C141.354 150.074 140.697 150.646 140.019 151.236 C126.394 163.883 115.438 182.87 110.011 200.502 C109.784 201.224 109.557 201.946 109.323 202.691 C103.03 223.476 101.787 249.524 108.011 270.502 C108.237 271.263 108.463 272.024 108.696 272.808 C112.076 283.907 116.517 294.083 122.191 304.193 C124.011 307.502 124.011 307.502 125.011 310.502 C124.084 310.474 123.157 310.447 122.201 310.419 C118.725 310.343 115.256 310.318 111.779 310.325 C110.281 310.318 108.784 310.291 107.287 310.245 C94.856 309.876 94.856 309.876 90.382 313.82 C88.365 316.627 86.677 319.476 85.011 322.502 C81.673 326.764 77.754 330.592 74.011 334.502 C73.123 335.443 72.235 336.384 71.32 337.353 C57.097 352.053 32.018 373.505 10.699 373.939 C3.538 373.818 -0.47 371.948 -5.512 367.01 C-10.861 361.042 -11.417 355.54 -11.321 347.799 C-10.924 343.857 -9.843 340.956 -7.961 337.502 C-5.38 332.194 -5.87 326.451 -5.926 320.689 C-5.931 319.806 -5.935 318.922 -5.94 318.011 C-5.951 315.842 -5.969 313.672 -5.989 311.502 C-7.293 311.464 -8.598 311.427 -9.942 311.388 C-29.822 310.697 -44.648 307.21 -58.989 292.502 C-73.461 276.91 -74.291 259.167 -74.279 239.09 C-74.285 237.031 -74.292 234.971 -74.299 232.912 C-74.317 227.344 -74.322 221.776 -74.323 216.207 C-74.324 212.723 -74.329 209.238 -74.334 205.754 C-74.353 193.582 -74.361 181.409 -74.359 169.237 C-74.358 157.915 -74.379 146.594 -74.411 135.272 C-74.437 125.529 -74.447 115.787 -74.446 106.043 C-74.446 100.234 -74.451 94.425 -74.473 88.616 C-74.492 83.151 -74.492 77.687 -74.478 72.222 C-74.475 70.224 -74.48 68.227 -74.492 66.23 C-74.606 46.236 -70.545 30.007 -56.039 15.302 C-51.321 10.804 -45.96 7.126 -39.989 4.502 C-39.243 4.163 -38.498 3.825 -37.73 3.477 C-25.624 -1.087 -12.737 -0.05 0 0 Z " fill="#7933E7" transform="translate(158.988525390625,106.498291015625)"/>
<path d="M0 0 C1.07 0.362 2.14 0.724 3.242 1.098 C17.853 6.266 30.315 13.902 42 24 C42.759 24.656 43.519 25.312 44.301 25.988 C62.152 42.695 74.618 68.794 76.205 93.151 C76.991 120.048 72.339 142.058 58 165 C57.324 166.329 56.656 167.661 56 169 C56.395 169.393 56.79 169.786 57.197 170.191 C66.809 179.759 76.415 189.332 86.015 198.911 C90.658 203.544 95.302 208.174 99.951 212.8 C104.436 217.263 108.916 221.731 113.392 226.202 C115.103 227.909 116.815 229.614 118.528 231.317 C120.925 233.699 123.316 236.088 125.705 238.478 C126.417 239.183 127.13 239.889 127.865 240.616 C128.515 241.269 129.166 241.923 129.836 242.596 C130.402 243.16 130.968 243.724 131.551 244.305 C135.794 249.269 135.417 254.284 135.312 260.578 C134.767 266.548 132.468 269.866 128 273.812 C123.843 276.844 121.001 278.32 115.812 278.5 C115.372 278.526 115.372 278.526 113.145 278.656 C105.041 276.965 98.719 270.15 93.094 264.434 C92.361 263.702 91.628 262.969 90.873 262.215 C88.48 259.819 86.097 257.414 83.715 255.008 C82.047 253.334 80.378 251.661 78.709 249.989 C74.338 245.606 69.975 241.215 65.615 236.821 C61.156 232.331 56.688 227.849 52.221 223.367 C43.472 214.586 34.733 205.796 26 197 C22.553 198.354 19.219 199.84 15.888 201.462 C-8.688 213.345 -38.826 216.872 -65 208 C-65.64 207.786 -66.281 207.571 -66.94 207.351 C-80.551 202.687 -92.07 195.247 -103 186 C-103.331 185.742 -103.331 185.742 -105.008 184.434 C-124.725 168.508 -136.935 141.75 -140 117 C-142.212 84.269 -134.011 55.712 -112.458 30.63 C-86.062 1.113 -37.99 -14.817 0 0 Z " fill="#FCFCFD" transform="translate(419,242)"/>
<path d="M0 0 C2.741 -0.002 5.482 -0.009 8.223 -0.016 C14.872 -0.03 21.52 -0.023 28.168 -0.008 C35.923 0.009 43.678 0.006 51.433 0.002 C65.276 -0.004 79.119 0.01 92.962 0.035 C106.372 0.059 119.782 0.066 133.191 0.056 C147.822 0.044 162.452 0.042 177.082 0.057 C178.644 0.058 180.206 0.06 181.768 0.061 C182.152 0.062 182.152 0.062 184.097 0.064 C189.493 0.068 194.889 0.067 200.285 0.062 C206.867 0.057 213.449 0.063 220.031 0.083 C223.384 0.093 226.737 0.097 230.091 0.09 C233.736 0.084 237.381 0.097 241.026 0.114 C241.549 0.111 241.549 0.111 244.195 0.096 C260.253 0.233 275.241 5.893 286.832 17.123 C294.48 25.47 302.147 36.814 302.132 48.551 C302.132 48.95 302.132 48.95 302.136 50.965 C302.132 51.829 302.129 52.694 302.125 53.585 C302.125 54.502 302.125 55.42 302.125 56.365 C302.125 59.395 302.117 62.425 302.109 65.455 C302.107 67.557 302.106 69.658 302.105 71.76 C302.101 77.291 302.091 82.821 302.08 88.351 C302.07 93.995 302.065 99.639 302.06 105.283 C302.05 116.356 302.033 127.429 302.011 138.502 C299.802 137.254 297.594 136.004 295.386 134.752 C294.769 134.404 294.152 134.056 293.515 133.697 C292.276 132.993 291.043 132.278 289.816 131.553 C288.102 130.554 286.349 129.621 284.596 128.692 C282.011 126.502 282.011 126.502 281.272 123.196 C281.277 121.882 281.281 120.568 281.286 119.214 C281.28 118.486 281.275 117.759 281.269 117.01 C281.256 114.606 281.284 112.206 281.312 109.802 C281.309 108.126 281.302 106.449 281.292 104.773 C281.273 100.355 281.287 95.938 281.311 91.521 C281.345 84.469 281.339 77.418 281.315 70.366 C281.312 67.912 281.33 65.46 281.35 63.006 C281.383 51.208 279.801 41.842 272.011 32.502 C263.63 24.545 254.719 21.898 243.367 21.994 C242.223 21.988 241.079 21.981 239.9 21.975 C236.081 21.959 232.264 21.972 228.445 21.984 C225.702 21.981 222.958 21.972 220.214 21.963 C213.544 21.945 206.875 21.949 200.205 21.961 C194.782 21.97 189.359 21.971 183.936 21.966 C183.163 21.966 182.39 21.965 181.594 21.965 C180.023 21.963 178.453 21.962 176.882 21.961 C162.168 21.949 147.453 21.962 132.739 21.984 C120.126 22.002 107.513 21.999 94.9 21.98 C80.239 21.959 65.577 21.95 50.916 21.963 C49.351 21.964 47.786 21.965 46.221 21.966 C45.451 21.967 44.681 21.968 43.888 21.968 C38.475 21.972 33.062 21.966 27.649 21.957 C21.047 21.945 14.445 21.948 7.843 21.97 C4.478 21.98 1.113 21.982 -2.252 21.971 C-5.908 21.96 -9.562 21.974 -13.217 21.994 C-14.271 21.985 -15.325 21.976 -16.411 21.967 C-26.594 22.074 -35.603 25.322 -42.989 32.502 C-49.232 40.26 -52.449 47.488 -52.383 57.394 C-52.389 58.266 -52.395 59.138 -52.401 60.036 C-52.418 62.947 -52.413 65.856 -52.408 68.766 C-52.416 70.858 -52.424 72.949 -52.434 75.041 C-52.456 80.715 -52.459 86.388 -52.457 92.062 C-52.457 96.803 -52.466 101.545 -52.474 106.286 C-52.493 117.476 -52.496 128.666 -52.49 139.856 C-52.483 151.387 -52.506 162.917 -52.543 174.448 C-52.574 184.358 -52.585 194.268 -52.581 204.178 C-52.579 210.093 -52.584 216.007 -52.609 221.921 C-52.631 227.486 -52.629 233.051 -52.609 238.616 C-52.606 240.653 -52.611 242.689 -52.625 244.726 C-52.715 258.423 -51.843 269.224 -42.024 279.713 C-36.063 284.952 -29.675 288.564 -21.692 288.713 C-20.65 288.741 -19.609 288.769 -18.535 288.799 C-16.353 288.85 -14.171 288.895 -11.989 288.931 C-2.752 289.204 3.343 291.019 10.211 297.447 C16.774 304.936 16.687 314.076 16.153 323.521 C15.57 331.678 14.258 338.932 10.816 346.381 C10.011 348.502 10.011 348.502 10.011 352.502 C22.912 348.64 34.698 340.974 45.011 332.502 C45.285 332.283 45.285 332.283 46.67 331.179 C59.245 321.131 69.894 309.641 78.328 295.892 C80.126 293.34 81.321 292.074 84.011 290.502 C87.311 290.161 87.311 290.161 91.183 290.209 C91.866 290.213 92.548 290.217 93.251 290.222 C95.422 290.238 97.591 290.276 99.761 290.314 C101.237 290.329 102.712 290.343 104.187 290.355 C107.796 290.388 111.403 290.44 115.011 290.502 C116.494 293.271 117.972 296.042 119.449 298.814 C119.87 299.6 120.291 300.386 120.724 301.195 C120.926 301.574 120.926 301.574 121.945 303.49 C122.317 304.186 122.689 304.883 123.072 305.601 C124.011 307.502 124.011 307.502 125.011 310.502 C124.084 310.474 123.157 310.447 122.201 310.419 C118.725 310.343 115.256 310.318 111.779 310.325 C110.281 310.318 108.784 310.291 107.287 310.245 C94.856 309.876 94.856 309.876 90.382 313.82 C88.365 316.627 86.677 319.476 85.011 322.502 C81.673 326.764 77.754 330.592 74.011 334.502 C73.123 335.443 72.235 336.384 71.32 337.353 C57.097 352.053 32.018 373.505 10.699 373.939 C3.538 373.818 -0.47 371.948 -5.512 367.01 C-10.861 361.042 -11.417 355.54 -11.321 347.799 C-10.924 343.857 -9.843 340.956 -7.961 337.502 C-5.38 332.194 -5.87 326.451 -5.926 320.689 C-5.931 319.806 -5.935 318.922 -5.94 318.011 C-5.951 315.842 -5.969 313.672 -5.989 311.502 C-7.293 311.464 -8.598 311.427 -9.942 311.388 C-29.822 310.697 -44.648 307.21 -58.989 292.502 C-73.461 276.91 -74.291 259.167 -74.279 239.09 C-74.285 237.031 -74.292 234.971 -74.299 232.912 C-74.317 227.344 -74.322 221.776 -74.323 216.207 C-74.324 212.723 -74.329 209.238 -74.334 205.754 C-74.353 193.582 -74.361 181.409 -74.359 169.237 C-74.358 157.915 -74.379 146.594 -74.411 135.272 C-74.437 125.529 -74.447 115.787 -74.446 106.043 C-74.446 100.234 -74.451 94.425 -74.473 88.616 C-74.492 83.151 -74.492 77.687 -74.478 72.222 C-74.475 70.224 -74.48 68.227 -74.492 66.23 C-74.606 46.236 -70.545 30.007 -56.039 15.302 C-51.321 10.804 -45.96 7.126 -39.989 4.502 C-39.243 4.163 -38.498 3.825 -37.73 3.477 C-25.624 -1.087 -12.737 -0.05 0 0 Z " fill="#410C93" transform="translate(158.988525390625,106.498291015625)"/>
<path d="M0 0 C1.07 0.362 2.14 0.724 3.242 1.098 C17.853 6.266 30.315 13.902 42 24 C42.759 24.656 43.519 25.312 44.301 25.988 C62.152 42.695 74.618 68.794 76.205 93.151 C76.991 120.048 72.339 142.058 58 165 C57.324 166.329 56.656 167.661 56 169 C56.395 169.393 56.79 169.786 57.197 170.191 C66.809 179.759 76.415 189.332 86.015 198.911 C90.658 203.544 95.302 208.174 99.951 212.8 C104.436 217.263 108.916 221.731 113.392 226.202 C115.103 227.909 116.815 229.614 118.528 231.317 C120.925 233.699 123.316 236.088 125.705 238.478 C126.417 239.183 127.13 239.889 127.865 240.616 C128.515 241.269 129.166 241.923 129.836 242.596 C130.402 243.16 130.968 243.724 131.551 244.305 C135.794 249.269 135.417 254.284 135.312 260.578 C134.767 266.548 132.468 269.866 128 273.812 C123.843 276.844 121.001 278.32 115.812 278.5 C115.372 278.526 115.372 278.526 113.145 278.656 C105.041 276.965 98.719 270.15 93.094 264.434 C92.361 263.702 91.628 262.969 90.873 262.215 C88.48 259.819 86.097 257.414 83.715 255.008 C82.047 253.334 80.378 251.661 78.709 249.989 C74.338 245.606 69.975 241.215 65.615 236.821 C61.156 232.331 56.688 227.849 52.221 223.367 C43.472 214.586 34.733 205.796 26 197 C22.553 198.354 19.219 199.84 15.888 201.462 C-8.688 213.345 -38.826 216.872 -65 208 C-65.64 207.786 -66.281 207.571 -66.94 207.351 C-80.551 202.687 -92.07 195.247 -103 186 C-103.331 185.742 -103.331 185.742 -105.008 184.434 C-124.725 168.508 -136.935 141.75 -140 117 C-142.212 84.269 -134.011 55.712 -112.458 30.63 C-86.062 1.113 -37.99 -14.817 0 0 Z M-100.543 47.879 C-116.452 68.005 -121.49 90.747 -120 116 C-117.422 138.02 -104.679 158.816 -88 173 C-71.809 185.29 -53.617 192.414 -33.25 192.312 C-32.093 192.308 -30.937 192.303 -29.745 192.298 C-21.732 192.187 -14.614 191.655 -7 189 C-5.921 188.636 -4.842 188.273 -3.73 187.898 C20.534 179.142 37.408 162.876 48.461 139.973 C49.771 137.015 50.916 134.048 52 131 C52.197 130.46 52.197 130.46 53.191 127.727 C59.987 106.274 56.448 82.728 46.438 62.906 C42.378 55.614 37.513 49.249 32 43 C31.471 42.376 30.943 41.752 30.398 41.109 C16.771 26.154 -4.726 17.052 -24.621 15.84 C-55.026 14.556 -80.325 24.99 -100.543 47.879 Z " fill="#400C91" transform="translate(419,242)"/>
<path d="M0 0 C0.538 -0.002 0.538 -0.002 3.263 -0.012 C6.821 -0.019 10.378 0.011 13.935 0.041 C16.407 0.045 18.879 0.047 21.351 0.048 C26.53 0.054 31.709 0.077 36.888 0.112 C43.532 0.158 50.175 0.172 56.819 0.176 C61.923 0.18 67.026 0.196 72.129 0.215 C74.579 0.224 77.029 0.231 79.48 0.235 C82.901 0.244 86.321 0.266 89.742 0.293 C90.25 0.293 90.25 0.293 92.82 0.295 C93.286 0.3 93.286 0.3 95.645 0.325 C96.049 0.328 96.049 0.328 98.095 0.339 C100.609 0.635 102.175 1.239 104.306 2.599 C106.652 6.118 106.886 7.457 106.306 11.599 C104.271 14.514 102.642 16.322 99.072 17.063 C96.216 17.252 93.399 17.275 90.537 17.246 C89.994 17.251 89.994 17.251 87.249 17.273 C83.663 17.295 80.079 17.28 76.494 17.263 C74.002 17.267 71.51 17.272 69.018 17.278 C63.127 17.286 57.237 17.269 51.346 17.242 C46.651 17.223 41.956 17.23 37.26 17.251 C30.784 17.28 24.307 17.285 17.83 17.268 C15.362 17.265 12.893 17.269 10.424 17.281 C6.974 17.294 3.526 17.274 0.076 17.246 C-0.946 17.256 -1.967 17.267 -3.019 17.277 C-7.73 17.206 -9.97 17.143 -13.828 14.246 C-15.694 11.599 -15.694 11.599 -16.319 8.599 C-14.464 -0.301 -7.527 -0.11 0 0 Z " fill="#481795" transform="translate(341.693603515625,337.400634765625)"/>
<path d="M0 0 C0.386 -0.004 0.386 -0.004 2.342 -0.027 C4.889 -0.048 7.434 -0.034 9.98 -0.017 C11.755 -0.02 13.529 -0.025 15.304 -0.032 C19.02 -0.039 22.735 -0.028 26.45 -0.005 C31.209 0.024 35.966 0.007 40.724 -0.023 C44.388 -0.041 48.05 -0.035 51.714 -0.022 C53.468 -0.019 55.222 -0.023 56.976 -0.035 C59.43 -0.047 61.882 -0.028 64.336 0 C65.058 -0.01 65.78 -0.02 66.525 -0.031 C70.396 0.05 72.053 0.556 75.118 3 C77.168 5.647 77.168 5.647 77.793 8.647 C76.941 12.737 75.416 14.057 72.168 16.647 C69.354 17.143 67.144 17.333 64.336 17.294 C63.563 17.303 62.79 17.311 61.994 17.32 C59.447 17.342 56.902 17.328 54.355 17.311 C52.581 17.314 50.806 17.319 49.032 17.326 C45.316 17.333 41.601 17.322 37.886 17.299 C33.127 17.27 28.37 17.287 23.612 17.317 C19.948 17.335 16.285 17.329 12.622 17.316 C10.868 17.313 9.114 17.317 7.359 17.328 C4.905 17.341 2.454 17.322 0 17.294 C-0.361 17.299 -0.361 17.299 -2.189 17.325 C-6.06 17.243 -7.717 16.738 -10.782 14.294 C-12.832 11.647 -12.832 11.647 -13.457 8.647 C-11.936 1.346 -6.694 -0.094 0 0 Z " fill="#481593" transform="translate(354.83203125,303.35302734375)"/>
<path d="M0 0 C1.268 -0.013 2.536 -0.025 3.843 -0.038 C5.223 -0.031 6.604 -0.023 7.984 -0.014 C9.404 -0.016 10.824 -0.02 12.243 -0.025 C15.216 -0.031 18.188 -0.023 21.16 -0.004 C24.967 0.019 28.773 0.006 32.579 -0.018 C35.51 -0.033 38.44 -0.028 41.371 -0.018 C42.774 -0.015 44.178 -0.018 45.581 -0.028 C47.544 -0.038 49.506 -0.02 51.469 0 C52.585 0.003 53.701 0.006 54.851 0.01 C58.394 0.634 59.574 1.689 61.734 4.518 C62.458 8.295 62.116 9.911 60.066 13.167 C55.567 17.394 48.604 16.226 42.859 16.182 C41.488 16.185 40.118 16.19 38.747 16.196 C35.878 16.203 33.011 16.193 30.143 16.169 C26.474 16.141 22.806 16.157 19.137 16.187 C16.308 16.205 13.479 16.2 10.649 16.187 C8.641 16.182 6.633 16.197 4.625 16.212 C-5.495 16.082 -5.495 16.082 -8.598 13.167 C-10.648 9.911 -10.989 8.295 -10.266 4.518 C-7.181 0.48 -4.981 0.014 0 0 Z " fill="#420E91" transform="translate(352.265625,372.482421875)"/>
</svg>
