<svg width="128" height="128" viewBox="0 0 128 128" fill="none" xmlns="http://www.w3.org/2000/svg">
  <!-- Chat bubble outline -->
  <path d="M16 20 h76 a12 12 0 0 1 12 12 v48 a12 12 0 0 1 -12 12 H52 L28 108 V92 H16 a12 12 0 0 1 -12 -12 V32 a12 12 0 0 1 12 -12z"
        stroke="#7c3aed" stroke-width="5" stroke-linecap="round" stroke-linejoin="round" fill="none"/>
  <!-- Three dots -->
  <circle cx="38" cy="56" r="4" fill="#7c3aed"/>
  <circle cx="56" cy="56" r="4" fill="#7c3aed"/>
  <circle cx="74" cy="56" r="4" fill="#7c3aed"/>
  <!-- History/refresh circular arrow -->
  <circle cx="96" cy="96" r="20" stroke="#7c3aed" stroke-width="4.5" fill="none" opacity="0.9"/>
  <path d="M96 82 a14 14 0 1 1 -12 7" stroke="#7c3aed" stroke-width="4.5" stroke-linecap="round" fill="none"/>
  <polyline points="84,82 84,90 92,90" stroke="#7c3aed" stroke-width="4.5" stroke-linecap="round" stroke-linejoin="round" fill="none"/>
</svg>
